{
    "asset" : {
        "generator" : "Khronos glTF Blender I/O v1.8.19",
        "version" : "2.0"
    },
    "scene" : 0,
    "scenes" : [
        {
            "name" : "Scene",
            "nodes" : [
                0
            ]
        }
    ],
    "nodes" : [
        {
            "mesh" : 0,
            "name" : "RoomCreate_Stage"
        }
    ],
    "materials" : [
        {
            "doubleSided" : true,
            "emissiveFactor" : [
                0,
                0.15233826637268066,
                0.21402935683727264
            ],
            "name" : "RoomCreate_Stage_Light",
            "pbrMetallicRoughness" : {
                "baseColorTexture" : {
                    "index" : 0
                },
                "metallicFactor" : 0.4000000059604645,
                "roughnessFactor" : 0.25
            }
        },
        {
            "doubleSided" : true,
            "name" : "RoomCreate_Stage",
            "pbrMetallicRoughness" : {
                "baseColorTexture" : {
                    "index" : 1
                },
                "metallicFactor" : 0.4000000059604645,
                "roughnessFactor" : 0
            }
        }
    ],
    "meshes" : [
        {
            "name" : "RoomCreate_Stage",
            "primitives" : [
                {
                    "attributes" : {
                        "POSITION" : 0,
                        "NORMAL" : 1,
                        "TEXCOORD_0" : 2
                    },
                    "indices" : 3,
                    "material" : 0
                },
                {
                    "attributes" : {
                        "POSITION" : 4,
                        "NORMAL" : 5,
                        "TEXCOORD_0" : 6
                    },
                    "indices" : 7,
                    "material" : 1
                }
            ]
        }
    ],
    "textures" : [
        {
            "sampler" : 0,
            "source" : 0
        },
        {
            "sampler" : 0,
            "source" : 0
        }
    ],
    "images" : [
        {
            "bufferView" : 4,
            "mimeType" : "image/png",
            "name" : "RoomCreate_Stage"
        }
    ],
    "accessors" : [
        {
            "bufferView" : 0,
            "componentType" : 5126,
            "count" : 4049,
            "max" : [
                1.9423965215682983,
                0.044663816690444946,
                1.9423965215682983
            ],
            "min" : [
                -1.9423965215682983,
                -0.26898202300071716,
                -1.9423965215682983
            ],
            "type" : "VEC3"
        },
        {
            "bufferView" : 1,
            "componentType" : 5126,
            "count" : 4049,
            "type" : "VEC3"
        },
        {
            "bufferView" : 2,
            "componentType" : 5126,
            "count" : 4049,
            "type" : "VEC2"
        },
        {
            "bufferView" : 3,
            "componentType" : 5123,
            "count" : 21792,
            "type" : "SCALAR"
        },
        {
            "bufferView" : 5,
            "componentType" : 5126,
            "count" : 3948,
            "max" : [
                1.9828801155090332,
                0.05294707417488098,
                1.9828801155090332
            ],
            "min" : [
                -1.9828801155090332,
                -1.496556043624878,
                -1.9828801155090332
            ],
            "type" : "VEC3"
        },
        {
            "bufferView" : 6,
            "componentType" : 5126,
            "count" : 3948,
            "type" : "VEC3"
        },
        {
            "bufferView" : 7,
            "componentType" : 5126,
            "count" : 3948,
            "type" : "VEC2"
        },
        {
            "bufferView" : 8,
            "componentType" : 5123,
            "count" : 19008,
            "type" : "SCALAR"
        }
    ],
    "bufferViews" : [
        {
            "buffer" : 0,
            "byteLength" : 48588,
            "byteOffset" : 0
        },
        {
            "buffer" : 0,
            "byteLength" : 48588,
            "byteOffset" : 48588
        },
        {
            "buffer" : 0,
            "byteLength" : 32392,
            "byteOffset" : 97176
        },
        {
            "buffer" : 0,
            "byteLength" : 43584,
            "byteOffset" : 129568
        },
        {
            "buffer" : 0,
            "byteLength" : 893661,
            "byteOffset" : 173152
        },
        {
            "buffer" : 0,
            "byteLength" : 47376,
            "byteOffset" : 1066816
        },
        {
            "buffer" : 0,
            "byteLength" : 47376,
            "byteOffset" : 1114192
        },
        {
            "buffer" : 0,
            "byteLength" : 31584,
            "byteOffset" : 1161568
        },
        {
            "buffer" : 0,
            "byteLength" : 38016,
            "byteOffset" : 1193152
        }
    ],
    "samplers" : [
        {
            "magFilter" : 9729,
            "minFilter" : 9987
        }
    ],
    "buffers" : [
        {
            "byteLength" : 1231168,
            "uri" : "data:application/octet-stream;base64,"
        }
    ]
}
